<svg width="240" height="240" viewBox="0 0 240 240" fill="none" xmlns="http://www.w3.org/2000/svg">
<mask id="mask0_148_67" style="mask-type:alpha" maskUnits="userSpaceOnUse" x="0" y="0" width="240" height="240">
<circle cx="120" cy="120" r="120" fill="black"/>
</mask>
<g mask="url(#mask0_148_67)">
<rect x="-8" y="-8" width="256" height="256" fill="white"/>
<path d="M113.972 62.3144C113.607 62.4056 111.737 62.7247 109.868 62.9982C92.63 65.7788 75.8938 78.0409 68.1414 93.5395C63.2619 103.249 61.3922 110.542 61.4378 119.978C61.4378 136.024 67.7766 150.839 79.2228 161.369C84.7864 166.565 88.0697 168.845 94.2261 171.762C103.62 176.229 108.135 177.323 118.532 177.688C132.578 178.144 142.565 175.454 153.874 168.115C157.979 165.426 162.128 161.46 165.229 157.266C166.415 155.671 167.783 153.893 168.285 153.255C172.07 148.56 175.308 141.676 177.496 133.654C178.819 128.639 178.91 128.001 178.91 119.978C178.91 112.001 178.819 111.272 177.451 106.303C171.112 82.6905 153.281 66.7361 128.793 62.7703C125.281 62.1777 116.07 61.9042 113.972 62.3144ZM132.669 69.4711C137.594 70.6563 146.715 74.3486 149.724 76.3543C160.897 83.7845 167.783 92.6279 171.933 104.799C174.669 112.913 175.08 124.856 172.982 134.246C169.334 150.292 156.154 165.335 140.65 171.215C132.441 174.269 131.392 174.451 121.04 174.406C112.194 174.36 111.099 174.269 106.949 173.175C101.751 171.762 93.2228 167.842 89.1642 164.924C85.0144 161.916 77.4899 153.984 74.5714 149.517C69.7375 142.087 66.5453 132.058 66.5453 124.081C66.5453 115.785 69.5095 102.428 72.7929 96.0923C74.3434 93.1293 78.9036 87.2489 82.6886 83.3743C91.6267 74.2119 102.343 69.699 117.848 68.4683C123.731 68.0124 127.835 68.2859 132.669 69.4711Z" fill="#1C1A18"/>
<path d="M137.997 167.218C146.87 165.069 157.443 156.931 163.005 148.015C163.465 147.284 164.154 146.205 164.534 145.586C166.109 142.816 168.43 137.225 169.165 134.07C169.717 131.647 169.809 128.584 169.303 128.584C169.119 128.584 168.568 129.91 168.108 131.51C167.648 133.156 165.926 138.167 165.926 138.167C165.926 138.167 164.945 140.61 164.154 142.117C163.553 143.264 163.097 143.841 162.362 144.906C156.977 152.705 150.317 157.845 144.157 160.954C140.802 162.646 133.722 165.161 132.389 165.161C131.975 165.161 131.148 165.572 130.55 166.029L129.447 166.898L130.734 167.401C132.435 168.041 134.78 167.995 137.997 167.218Z" fill="#1C1A18"/>
<path d="M86.8689 18.8184C86.2919 19.3542 86.5804 20.5908 87.3636 21.003C88.3116 21.4976 89.6718 20.4259 89.3008 19.4779C89.1772 19.1481 89.0535 18.7772 89.0535 18.6947C89.0535 18.4062 87.1575 18.4886 86.8689 18.8184Z" fill="#1C1A18"/>
<path d="M128.664 22.5692C128.21 23.3936 128.788 24.3004 129.736 24.3004C130.354 24.3004 131.219 22.7753 130.89 22.2395C130.477 21.5388 129.076 21.7861 128.664 22.5692Z" fill="#1C1A18"/>
<path d="M154.838 23.806C154.467 24.3831 155.333 25.2487 155.992 25.0014C156.94 24.6304 156.817 23.4763 155.869 23.4763C155.415 23.4763 154.962 23.6411 154.838 23.806Z" fill="#1C1A18"/>
<path d="M89.1357 27.021C89.2181 27.4744 89.5891 27.8454 90.0425 27.9278C90.5783 28.0515 90.7432 27.8866 90.6195 27.3507C90.5371 26.8973 90.1661 26.5264 89.7127 26.4439C89.1769 26.3203 89.012 26.4851 89.1357 27.021Z" fill="#1C1A18"/>
<path d="M132.209 34.5229C131.178 35.677 131.302 37.3669 132.539 38.1501C134.641 39.5103 137.031 37.4906 136.207 35.0999C135.919 34.2343 135.506 33.9458 134.352 33.8634C133.363 33.7809 132.704 33.987 132.209 34.5229Z" fill="#1C1A18"/>
<path d="M165.72 38.2736C165.72 38.4797 166.008 38.727 166.338 38.8919C166.709 39.0156 166.956 38.8919 166.956 38.521C166.956 38.1912 166.668 37.9027 166.338 37.9027C166.008 37.9027 165.72 38.0675 165.72 38.2736Z" fill="#1C1A18"/>
<path d="M76.3572 41.6948C75.6153 42.4367 75.7389 43.4672 76.687 44.2916C77.5938 45.1159 78.5006 44.7038 78.8715 43.2199C79.2425 41.7772 77.4289 40.6231 76.3572 41.6948Z" fill="#1C1A18"/>
<path d="M193.048 44.7038C192.429 45.1572 192.1 45.7755 192.1 46.5998C192.1 47.5891 192.264 47.7952 193.048 47.7952C194.449 47.7952 196.139 45.8991 195.562 44.9923C194.944 44.0443 194.119 43.9618 193.048 44.7038Z" fill="#1C1A18"/>
<path d="M41.4041 57.0693C41.2393 57.4403 41.3217 57.9349 41.569 58.1822C42.1873 58.8005 43.3826 58.2234 43.2178 57.399C43.0529 56.451 41.7339 56.2037 41.4041 57.0693Z" fill="#1C1A18"/>
<path d="M32.1714 61.9332C32.1714 63.1697 32.8721 63.8292 33.8614 63.5819C34.4796 63.417 34.5208 63.2109 34.2323 62.5927C33.985 62.1805 33.4492 61.6446 32.9958 61.3973C32.295 61.0264 32.1714 61.0676 32.1714 61.9332Z" fill="#1C1A18"/>
<path d="M184.433 69.3937C183.939 70.6715 184.433 71.4958 185.67 71.4958C187.154 71.4958 187.978 70.4242 187.195 69.4761C186.494 68.6518 184.722 68.6105 184.433 69.3937Z" fill="#1C1A18"/>
<path d="M189.421 75.9888C188.473 77.3902 189.215 78.7916 190.782 78.6268C191.688 78.5443 191.936 78.2558 192.018 77.2665C192.142 76.4834 191.936 75.9063 191.441 75.5354C190.411 74.7934 190.163 74.8346 189.421 75.9888Z" fill="#1C1A18"/>
<path d="M211.967 75.494C211.184 76.2772 211.39 77.8023 212.338 78.2969C213.616 78.9976 215.264 77.8023 215.1 76.3184C215.017 75.4116 214.729 75.1643 213.739 75.0818C213.039 74.9994 212.255 75.2055 211.967 75.494Z" fill="#1C1A18"/>
<path d="M18.321 88.3543C17.9913 89.2199 18.8569 90.2503 19.64 89.9618C20.4644 89.6321 20.1759 88.0245 19.2691 87.8597C18.8981 87.7772 18.4447 88.0245 18.321 88.3543Z" fill="#1C1A18"/>
<path d="M217.325 98.9887C216.666 99.6482 216.707 101.173 217.449 101.792C218.273 102.492 219.675 101.915 219.963 100.72C220.417 98.9887 218.562 97.7522 217.325 98.9887Z" fill="#1C1A18"/>
<path d="M206.816 107.438C206.157 108.057 206.569 109.541 207.434 109.747C209.166 110.2 210.155 108.386 208.63 107.562C207.682 107.067 207.187 107.026 206.816 107.438Z" fill="#1C1A18"/>
<path d="M35.593 109.912C35.3044 109.994 35.0571 110.53 35.0571 111.107C35.0571 111.808 35.3457 112.137 36.1288 112.344C37.6127 112.715 38.6019 111.725 37.9837 110.489C37.5302 109.664 36.6647 109.458 35.593 109.912Z" fill="#1C1A18"/>
<path d="M22.032 143.216C21.2077 144.453 21.5786 145.607 22.9801 146.266C23.8869 146.679 24.1754 146.637 24.9998 145.854C26.1951 144.741 26.2363 143.793 25.2471 142.886C24.1342 141.897 22.8152 142.021 22.032 143.216Z" fill="#1C1A18"/>
<path d="M207.103 142.639C206.774 143.216 207.845 143.917 208.34 143.422C208.711 143.051 208.34 142.186 207.763 142.186C207.557 142.186 207.268 142.392 207.103 142.639Z" fill="#1C1A18"/>
<path d="M213.658 157.272C213.039 158.879 214.977 160.693 216.502 159.869C217.367 159.415 217.491 158.137 216.749 157.56C215.842 156.86 213.905 156.654 213.658 157.272Z" fill="#1C1A18"/>
<path d="M193.995 158.921C193.006 159.869 193.336 160.94 194.572 160.94C195.768 160.94 196.221 159.539 195.273 158.715C194.779 158.344 194.531 158.385 193.995 158.921Z" fill="#1C1A18"/>
<path d="M228.352 162.832C228.188 162.997 228.064 163.492 228.064 163.904C228.064 164.563 228.188 164.605 228.93 164.234C229.383 163.986 229.713 163.574 229.589 163.286C229.424 162.709 228.723 162.461 228.352 162.832Z" fill="#1C1A18"/>
<path d="M27.3905 165.722C25.5356 166.257 24.8349 167.164 25.6593 168.03C26.5661 168.895 27.7614 168.442 29.0804 166.711C30.2758 165.103 29.9873 164.938 27.3905 165.722Z" fill="#1C1A18"/>
<path d="M190.244 168.401C188.925 169.72 190.45 171.41 191.892 170.215C192.758 169.514 192.676 168.689 191.728 168.154C191.109 167.865 190.738 167.906 190.244 168.401Z" fill="#1C1A18"/>
<path d="M33.4483 176.974C33.1598 177.304 32.9949 178.087 33.0774 178.747C33.201 179.777 33.3659 179.901 34.8498 179.901C36.2512 179.901 36.5397 179.736 36.8695 178.788C37.158 178.005 37.1168 177.51 36.7046 177.057C36.0451 176.232 34.0666 176.191 33.4483 176.974Z" fill="#1C1A18"/>
<path d="M173.551 181.343C172.974 182.415 173.015 182.827 173.798 183.569C174.664 184.435 175.076 184.394 175.612 183.404C175.9 182.827 175.9 182.333 175.653 181.797C175.035 180.643 174.045 180.437 173.551 181.343Z" fill="#1C1A18"/>
<path d="M200.238 189.708C200.485 190.161 201.063 190.738 201.598 190.986C202.34 191.398 202.299 191.233 201.31 190.161C199.908 188.678 199.62 188.554 200.238 189.708Z" fill="#1C1A18"/>
<path d="M75.2865 196.141C74.3385 197.171 74.7507 198.573 76.1109 198.902C76.688 199.067 77.3887 198.944 77.7184 198.655C78.584 197.913 78.5016 196.306 77.5536 195.77C76.4406 195.193 76.1109 195.234 75.2865 196.141Z" fill="#1C1A18"/>
<path d="M204.362 193.788C204.362 195.685 206.382 197.581 207.453 196.715C208.525 195.849 206.959 193.418 205.31 193.418C204.815 193.418 204.362 193.582 204.362 193.788Z" fill="#1C1A18"/>
<path d="M158.506 198.243C158.63 198.449 158.836 198.655 158.96 198.655C159.042 198.655 159.125 198.449 159.125 198.243C159.125 197.996 158.919 197.831 158.671 197.831C158.465 197.831 158.383 197.996 158.506 198.243Z" fill="#1C1A18"/>
<path d="M130.435 206.24C130.188 206.858 130.93 208.548 131.425 208.548C131.631 208.548 132.125 208.301 132.579 207.971C133.197 207.476 133.279 207.229 132.908 206.611C132.331 205.663 130.765 205.415 130.435 206.24Z" fill="#1C1A18"/>
<path d="M87.8579 208.63C87.5282 209.372 87.6518 209.743 88.3525 210.32C89.1769 211.021 89.2181 211.021 90.0425 210.196C90.702 209.537 90.7844 209.207 90.4547 208.63C89.754 207.517 88.2701 207.517 87.8579 208.63Z" fill="#1C1A18"/>
<path d="M108.508 215.637C108.591 216.132 108.921 216.585 109.25 216.585C110.157 216.585 110.034 214.978 109.127 214.813C108.508 214.689 108.385 214.854 108.508 215.637Z" fill="#1C1A18"/>
<path d="M117.989 220.295C117.123 222.15 117.371 223.758 118.525 224.293C119.39 224.664 119.679 224.623 120.38 224.005C121.41 223.057 121.41 222.315 120.38 220.584C119.39 218.976 118.607 218.894 117.989 220.295Z" fill="#1C1A18"/>
<path fill-rule="evenodd" clip-rule="evenodd" d="M119.389 15.2736C119.266 16.0568 119.101 19.0657 118.977 22.0335C118.689 28.5872 117.576 34.1518 115.721 38.0675C114.031 41.6123 112.712 43.2611 110.61 44.2916C109.744 44.745 108.507 45.5281 107.807 46.0227C105.993 47.3417 103.767 47.6303 101.665 46.8059C99.4394 45.9403 98.038 44.4564 95.6061 40.4582C93.8337 37.5317 92.6383 36.2127 92.1849 36.6661C92.1025 36.7898 92.1849 37.9027 92.4322 39.1392C92.6795 40.3758 92.7208 42.6016 92.5971 44.0855C91.9788 50.8453 89.7118 54.0191 86.167 53.1535C85.5899 53.0299 84.3122 53.236 83.158 53.6482C80.6849 54.5962 79.0362 54.5962 76.1921 53.607C69.5971 51.3399 64.5272 47.2181 59.3337 39.9224C56.6544 36.089 54.0577 33.3686 53.1509 33.3686C52.9036 33.3686 53.0272 33.8632 53.4394 34.4815C56.7781 39.5926 62.0953 48.4134 63.7028 51.6285C66.8354 57.8525 66.7942 62.5514 63.4967 66.7145C61.0648 69.8059 59.2924 70.96 56.943 71.0837C55.8301 71.1661 54.5523 71.4134 54.0165 71.7019C52.6562 72.4439 50.0595 71.8256 46.7208 70.012C43.0935 68.0335 42.4752 67.9923 42.4752 69.641C42.4752 70.5478 43.0935 71.5783 44.8659 73.6392C46.1849 75.2055 47.6276 76.6894 47.9985 77.0192C48.9466 77.8435 50.1419 80.2342 50.4717 82.089C50.8014 83.9027 49.977 86.1285 48.658 87.0765C48.1634 87.4063 47.8749 87.9009 47.9985 88.1482C48.1634 88.3955 47.9985 89.1374 47.6688 89.7969C46.8032 91.4457 44.7423 92.064 41.2799 91.7342C40.6752 91.6712 40.1201 91.6128 39.6101 91.5591C35.0272 91.0769 34.095 90.9788 33.6366 91.3983C33.5196 91.5054 33.4334 91.6463 33.3253 91.8231L33.3251 91.8235C33.2872 91.8854 33.2466 91.9518 33.201 92.0227C32.3354 93.383 32.8301 94.4134 35.0559 95.65C36.8283 96.6392 38.3534 99.1536 38.3534 101.05C38.3534 101.627 38.7656 102.41 39.219 102.863C41.5684 104.924 42.3516 109.912 40.8265 112.879C40.0021 114.569 37.3229 117.084 35.3444 118.114C33.3247 119.186 27.1831 120.299 21.9071 120.546C19.063 120.67 16.6724 120.876 16.5487 120.958C15.9716 121.577 17.6616 122.112 21.124 122.442C29.5738 123.266 36.8695 125.327 39.6311 127.636C43.1347 130.603 42.805 134.519 38.8068 137.487C37.6527 138.353 36.581 139.383 36.4573 139.795C35.9627 141.403 38.1885 143.793 40.1258 143.835C41.7333 143.835 43.9591 144.947 44.9484 146.225C47.4215 149.317 44.2064 155.335 37.6939 159.827C36.3337 160.734 34.6025 162.053 33.8193 162.754L32.3767 164.032L34.0254 163.784C34.9322 163.62 37.158 162.919 38.9716 162.218C41.7333 161.146 42.805 160.94 45.5666 160.982C52.6562 161.064 54.1813 161.765 54.9645 165.309C55.4179 167.206 55.6652 167.618 56.9018 168.236C57.6437 168.648 58.7566 169.431 59.3337 170.008C60.2817 170.915 60.4053 171.41 60.3641 173.718C60.3641 176.315 60.3229 176.439 57.6025 181.55C57.2315 182.209 56.201 184.394 55.2942 186.331C54.0989 188.928 53.1096 190.37 51.7494 191.566C50.719 192.473 49.4824 193.709 48.9878 194.327L48.1222 195.44L49.3175 194.822C49.977 194.492 50.9663 193.709 51.5433 193.091C52.9035 191.607 58.262 187.897 60.8175 186.62C67.9484 183.075 75.8211 182.58 79.8193 185.424C80.7674 186.125 81.7978 186.702 82.1276 186.702C83.4466 186.702 85.8372 187.65 86.9914 188.639C88.8874 190.206 89.5469 191.896 89.9179 195.976C90.2889 199.686 90.7835 200.716 92.1849 200.716C92.4734 200.716 94.2046 199.439 96.0595 197.831C99.6867 194.698 100.552 194.327 103.19 194.616C105.292 194.863 111.599 198.655 113.825 201.005C115.638 202.86 116.133 203.808 116.916 206.611C118.029 210.691 118.441 211.845 118.73 211.845C119.595 211.845 120.543 209.826 121.285 206.404C122.645 200.18 123.8 198.573 128.787 196.182C130.724 195.275 132.002 194.946 133.651 194.946C136.66 194.946 138.185 195.976 140.699 199.809C142.266 202.118 142.925 202.777 143.708 202.777C144.656 202.777 144.697 202.695 144.697 199.562C144.697 194.863 145.687 193.173 149.438 191.236C151.828 189.999 152.653 189.793 154.961 189.835C158.753 189.835 161.803 191.277 163.658 193.874C165.266 196.059 166.502 196.594 167.986 195.605C169.387 194.657 169.264 193.544 167.491 191.154C165.76 188.763 165.348 186.496 166.131 182.827C166.749 179.818 168.439 177.758 170.583 177.428C171.407 177.263 172.932 176.892 173.921 176.562C176.642 175.697 178.497 175.861 182.248 177.222C186.328 178.706 188.266 179.818 191.481 182.58C193.253 184.064 194.242 184.641 194.943 184.559C195.52 184.476 196.015 184.229 196.097 183.982C196.18 183.693 194.49 181.591 192.346 179.283C189.461 176.232 187.977 174.213 186.864 171.946C185.421 169.019 185.298 168.525 185.339 165.268C185.339 161.188 186.122 159.25 188.884 156.612C191.151 154.345 193.789 153.603 197.416 154.139C198.9 154.345 201.085 154.551 202.197 154.551C203.352 154.551 205.248 154.922 206.484 155.376C207.68 155.87 208.916 156.159 209.163 156.077C209.411 155.994 208.38 155.499 206.855 155.005C204.877 154.345 203.805 153.727 203.187 152.861C202.733 152.202 201.538 151.213 200.549 150.594C198.364 149.358 195.932 146.72 195.561 145.277C195.232 143.876 196.221 142.433 197.952 141.939C199.106 141.609 199.312 141.361 199.312 140.331C199.312 139.424 198.982 138.93 197.869 138.229C195.355 136.621 194.984 136.127 194.984 134.272C194.984 131.922 196.262 129.49 198.405 127.718C202.692 124.091 206.237 123.184 219.839 122.195C222.395 121.989 223.425 121.741 223.425 121.37C223.425 120.711 222.518 120.505 217.242 119.887C212.914 119.392 205.083 117.743 202.939 116.836C200.796 115.93 197.869 113.663 197.21 112.426C196.221 110.53 196.509 108.675 198.117 106.284C199.395 104.347 199.477 104.059 198.859 103.729C197.128 102.781 196.592 101.792 196.715 99.8955C196.839 98.0407 196.798 97.9994 195.19 97.4636C193.006 96.6804 192.099 95.5263 192.099 93.383C192.099 91.7754 193.706 88.6016 194.531 88.6016C195.025 88.6016 198.653 84.8507 198.9 84.0675C199.024 83.6966 200.59 82.6661 202.404 81.8005C204.794 80.6464 205.701 79.9869 205.701 79.4098C205.701 78.4618 204.629 78.7091 201.991 80.3579C200.796 81.0998 199.271 81.5944 197.663 81.8005C196.303 81.9242 193.665 82.4188 191.769 82.8722C187.812 83.8202 187.482 83.7378 184.68 80.8113C183.649 79.7808 182.248 78.6267 181.506 78.2145C180.805 77.8435 179.898 76.9367 179.486 76.1536C178.579 74.4224 178.249 70.012 178.826 67.3328C179.239 65.3955 182.042 60.8202 185.71 56.0389L185.959 55.711C186.7 54.736 187.575 53.5845 188.018 53.0299C189.42 51.1751 188.595 51.2575 186.04 53.1948C179.981 57.8113 176.395 59.4188 172.108 59.5012C170.047 59.5424 168.893 59.3364 168.192 58.883C167.615 58.512 166.007 58.141 164.606 58.0174C162.669 57.8937 161.762 57.6052 160.608 56.7396C158.753 55.2969 158.258 54.3489 158.176 52.0407C158.094 50.5156 158.258 50.0622 159.042 49.4851C161.927 47.4654 162.545 46.7234 162.257 45.5693C161.597 42.8901 158.341 43.3435 157.022 46.3525C155.579 49.65 153.147 50.4743 151.993 48.0424C150.715 45.322 150.056 41.9421 150.468 40.1697C150.674 39.2629 150.88 37.9439 150.88 37.2432V35.9654L148.119 38.6858C145.728 40.9941 144.739 41.6536 141.482 42.9313C137.113 44.7037 135.3 44.9098 134.187 43.6733C133.527 42.9313 133.115 42.8489 131.301 43.055C128.746 43.3847 127.798 42.7664 125.366 39.098C123.346 36.089 122.151 32.2557 121.821 27.8041C121.697 25.9905 121.45 23.3937 121.203 22.0335C120.997 20.6733 120.708 18.5299 120.585 17.2933C120.255 14.3256 119.678 13.3363 119.389 15.2736ZM182.371 158.508C182.495 158.838 182.454 159.003 182.206 158.879C181.959 158.756 181.794 158.467 181.794 158.22C181.794 157.643 182.083 157.766 182.371 158.508ZM181.629 161.971C181.629 162.465 181.465 162.63 181.258 162.424C181.052 162.218 181.011 161.847 181.135 161.6C181.547 160.982 181.629 161.023 181.629 161.971ZM179.527 162.383C179.651 162.63 179.486 162.672 179.156 162.548C178.414 162.259 178.291 161.971 178.868 161.971C179.115 161.971 179.404 162.136 179.527 162.383ZM179.445 166.381C179.156 166.464 178.662 166.464 178.414 166.381C178.126 166.258 178.332 166.175 178.909 166.175C179.486 166.175 179.692 166.258 179.445 166.381ZM177.549 169.143C177.549 169.473 177.301 169.637 176.93 169.514C176.477 169.308 176.477 169.225 176.93 168.937C177.219 168.731 177.466 168.566 177.507 168.566C177.507 168.566 177.549 168.813 177.549 169.143ZM71.7405 178.623C71.7405 178.747 71.5756 178.953 71.3283 179.077C71.1222 179.2 70.9161 179.118 70.9161 178.912C70.9161 178.664 71.1222 178.458 71.3283 178.458C71.5756 178.458 71.7405 178.541 71.7405 178.623ZM83.9 180.931C83.7763 181.137 83.4053 181.344 83.158 181.344C82.8695 181.344 82.9107 181.179 83.2817 180.931C84.0648 180.437 84.2297 180.437 83.9 180.931ZM92.4322 183.487C92.1437 183.775 91.9376 183.817 91.9376 183.569C91.9376 182.992 92.4322 182.498 92.7208 182.786C92.8032 182.91 92.6795 183.24 92.4322 183.487ZM95.4412 183.775C95.3175 184.023 94.8641 184.188 94.4932 184.188C93.8749 184.146 93.8749 184.105 94.5344 183.94C94.9053 183.858 95.2351 183.569 95.2351 183.322C95.2351 183.075 95.3588 182.951 95.4824 183.116C95.6061 183.24 95.6061 183.528 95.4412 183.775ZM90.6186 184.229C90.3301 184.641 90.0415 184.93 89.9179 184.847C89.753 184.682 90.6598 183.404 90.9484 183.404C91.0308 183.404 90.9071 183.775 90.6186 184.229ZM93.0093 184.723C93.1742 184.971 93.1329 185.053 92.8856 184.93C92.2673 184.559 90.9484 185.671 91.3193 186.249C91.5254 186.62 91.7315 186.661 92.0613 186.331C92.3086 186.084 92.6795 185.878 92.8856 185.878C93.0917 185.878 92.9681 186.125 92.6795 186.413C92.391 186.743 91.8552 186.99 91.4842 186.99C90.5362 186.99 90.6186 185.548 91.6491 184.847C91.7125 184.803 91.7719 184.762 91.8276 184.723L91.834 184.719C92.3252 184.377 92.5257 184.237 92.6679 184.282C92.766 184.313 92.8363 184.432 92.9552 184.633C92.9721 184.661 92.9901 184.691 93.0093 184.723ZM86.9089 185.671C86.7853 185.795 86.538 185.589 86.4143 185.177C86.167 184.6 86.2082 184.559 86.6204 184.93C86.9089 185.218 87.0326 185.548 86.9089 185.671ZM94.4107 185.507C94.4107 185.713 94.2458 185.878 94.081 185.878C93.8749 185.878 93.71 185.589 93.71 185.259C93.71 184.93 93.8749 184.765 94.081 184.888C94.2458 185.012 94.4107 185.259 94.4107 185.507ZM97.5846 185.548C97.4609 185.878 97.3372 185.754 97.3372 185.301C97.296 184.847 97.4197 184.6 97.5433 184.765C97.667 184.888 97.7082 185.259 97.5846 185.548ZM88.0218 185.424C87.8982 185.63 88.1867 185.919 88.6401 186.084C89.0935 186.207 89.4645 186.62 89.4645 186.949C89.4645 187.279 89.6706 187.444 89.8767 187.32C90.124 187.197 90.2889 187.279 90.2889 187.485C90.2889 188.186 89.753 188.021 88.5165 186.867C87.5684 186.001 87.3211 185.053 88.0631 185.053C88.1867 185.053 88.1867 185.218 88.0218 185.424ZM89.4645 185.218C89.4645 185.342 89.2996 185.548 89.0523 185.671C88.8462 185.795 88.6401 185.713 88.6401 185.507C88.6401 185.259 88.8462 185.053 89.0523 185.053C89.2996 185.053 89.4645 185.136 89.4645 185.218ZM96.6365 185.795C96.719 185.96 96.4304 186.166 95.9358 186.166C95.2351 186.249 95.1527 186.166 95.6473 185.878C96.3892 185.383 96.3892 185.383 96.6365 185.795ZM99.934 186.084C99.7691 186.413 99.6043 186.702 99.5218 186.702C99.4394 186.702 99.357 186.413 99.357 186.084C99.357 185.754 99.5218 185.465 99.7691 185.465C99.9752 185.465 100.058 185.754 99.934 186.084ZM105.746 186.29C105.622 186.496 105.251 186.702 105.004 186.702C104.715 186.702 104.757 186.537 105.128 186.29C105.911 185.795 106.076 185.795 105.746 186.29ZM93.4627 187.609C93.339 187.939 93.2154 187.815 93.2154 187.361C93.1742 186.908 93.2978 186.661 93.4215 186.826C93.5451 186.949 93.5864 187.32 93.4627 187.609ZM95.2351 187.114C94.9053 187.32 94.4519 187.526 94.2046 187.526C93.9985 187.526 94.081 187.32 94.4107 187.114C94.7405 186.908 95.2351 186.702 95.4412 186.702C95.6885 186.702 95.5648 186.908 95.2351 187.114ZM104.303 187.114C104.303 187.32 104.221 187.526 104.138 187.526C104.015 187.526 103.809 187.32 103.685 187.114C103.561 186.867 103.644 186.702 103.85 186.702C104.097 186.702 104.303 186.867 104.303 187.114ZM92.5971 188.516C92.5559 188.969 92.2674 189.422 92.02 189.505C91.7315 189.587 91.6491 189.876 91.7727 190.082C91.9788 190.37 91.8552 190.412 91.5254 190.206C91.1132 189.958 91.1544 189.752 91.7315 189.299C92.391 188.845 92.3086 188.598 91.4842 188.68C91.3605 188.722 91.2369 188.474 91.2369 188.227C91.2369 187.939 91.5666 187.691 91.9788 187.691C92.5147 187.691 92.6795 187.98 92.5971 188.516ZM96.1419 188.516C96.0595 189.01 96.2656 189.175 96.7602 189.093C97.2548 189.01 97.5021 189.258 97.5433 189.876C97.5846 190.412 97.4197 190.824 97.2136 190.824C97.0075 190.824 96.9663 190.412 97.1312 189.876C97.2507 189.458 97.3124 189.241 97.256 189.204C97.1956 189.164 96.9999 189.329 96.5953 189.67C96.1419 190.082 95.6061 190.412 95.4 190.412C95.1939 190.412 95.3175 190.206 95.6473 189.999C96.1831 189.67 96.1831 189.546 95.6885 189.216C95.4 189.01 95.2351 188.639 95.4 188.392C95.6061 188.103 95.4412 188.021 94.9466 188.186C94.3283 188.392 94.2871 188.351 94.8229 187.98C95.6473 187.403 96.3068 187.65 96.1419 188.516ZM97.7082 187.691C97.7082 187.815 97.5433 188.021 97.296 188.145C97.0899 188.268 96.8838 188.186 96.8838 187.98C96.8838 187.732 97.0899 187.526 97.296 187.526C97.5433 187.526 97.7082 187.609 97.7082 187.691ZM101.624 188.433C101.335 189.216 100.181 189.216 100.181 188.474C100.181 188.145 100.346 187.98 100.552 188.145C100.758 188.268 101.088 188.145 101.212 187.897C101.624 187.32 101.913 187.691 101.624 188.433ZM106.57 187.939C106.694 188.186 106.529 188.227 106.199 188.103C105.457 187.815 105.334 187.526 105.911 187.526C106.158 187.526 106.447 187.691 106.57 187.939ZM104.015 188.639C103.726 188.763 103.644 189.134 103.767 189.505C104.097 190.412 103.726 190.041 103.149 188.887C102.696 188.103 102.778 188.062 103.561 188.268C104.097 188.392 104.262 188.557 104.015 188.639ZM94.2871 189.546C94.3283 189.999 94.0398 190.618 93.71 190.906C93.1329 191.36 93.0917 191.36 93.5039 190.577C93.8337 189.917 93.8337 189.587 93.5039 189.258C93.1329 188.887 93.1742 188.763 93.6276 188.763C93.9573 188.763 94.2458 189.134 94.2871 189.546ZM108.013 189.587C108.013 189.793 107.93 189.999 107.848 189.999C107.724 189.999 107.518 189.793 107.395 189.587C107.271 189.34 107.353 189.175 107.559 189.175C107.807 189.175 108.013 189.34 108.013 189.587ZM99.1509 190.824C99.5631 191.277 99.8104 191.648 99.6867 191.648C99.5631 191.648 99.1509 191.277 98.7387 190.824C98.3265 190.37 98.0792 189.999 98.2028 189.999C98.3265 189.999 98.7387 190.37 99.1509 190.824ZM101.446 190.929C101.079 191.333 100.793 191.648 100.717 191.648C100.676 191.648 100.676 191.277 100.717 190.824C100.758 190.329 101.047 189.999 101.5 189.999C102.201 189.999 102.201 190.041 101.542 190.824L101.446 190.929ZM109.538 190.906C109.414 191.236 109.291 191.112 109.291 190.659C109.249 190.206 109.373 189.958 109.497 190.123C109.62 190.247 109.662 190.618 109.538 190.906ZM94.8229 191.236C94.8229 191.442 94.6168 191.648 94.3695 191.648C94.1634 191.648 94.081 191.442 94.2046 191.236C94.3283 190.989 94.5344 190.824 94.658 190.824C94.7405 190.824 94.8229 190.989 94.8229 191.236ZM112.835 191.731C112.712 192.06 112.588 191.937 112.588 191.483C112.547 191.03 112.671 190.783 112.794 190.947C112.918 191.071 112.959 191.442 112.835 191.731ZM96.8838 191.607C96.8838 192.308 96.0182 192.596 95.5236 192.102C95.1527 191.731 95.2351 191.689 95.8121 191.896C96.348 192.102 96.5129 192.06 96.3068 191.731C96.1419 191.442 96.2243 191.236 96.4304 191.236C96.6777 191.236 96.8838 191.401 96.8838 191.607ZM98.4089 191.772C98.4089 192.102 98.1616 192.349 97.8319 192.349C97.1312 192.349 97.1312 191.772 97.8319 191.525C98.0792 191.401 98.3265 191.277 98.3677 191.277C98.3677 191.236 98.4089 191.483 98.4089 191.772ZM102.654 191.648C102.654 191.854 102.572 192.06 102.49 192.06C102.366 192.06 102.16 191.854 102.036 191.648C101.913 191.401 101.995 191.236 102.201 191.236C102.448 191.236 102.654 191.401 102.654 191.648ZM104.921 192.102C105.045 192.266 104.921 192.555 104.674 192.72C104.344 192.885 104.303 192.844 104.468 192.555C104.839 191.937 104.221 191.896 103.644 192.473C103.396 192.72 103.232 192.596 103.232 192.102C103.232 191.607 103.479 191.401 103.973 191.566C104.386 191.648 104.839 191.896 104.921 192.102ZM106.776 191.896C106.776 192.225 106.57 192.39 106.364 192.266C106.117 192.102 106.034 191.813 106.158 191.607C106.529 191.03 106.776 191.154 106.776 191.896ZM108.343 192.143C108.755 192.637 108.755 192.885 108.384 193.132C108.095 193.297 108.013 193.256 108.178 192.967C108.301 192.72 108.26 192.431 108.013 192.266C107.807 192.143 107.601 191.813 107.601 191.566C107.601 191.318 107.642 191.195 107.724 191.277C107.747 191.322 107.841 191.451 107.969 191.625L107.969 191.625L107.97 191.626C108.078 191.774 108.211 191.954 108.343 192.143ZM94.8641 192.679C94.8229 193.297 93.8749 193.173 93.6688 192.555C93.5451 192.184 93.7512 192.019 94.1634 192.143C94.5756 192.184 94.8641 192.431 94.8641 192.679ZM99.5218 192.431C99.6455 192.637 99.4394 193.05 99.0272 193.338C98.4089 193.833 98.3677 193.833 98.8211 193.256C99.1096 192.885 99.2333 192.473 99.0684 192.349C98.9448 192.184 98.9036 192.06 99.0684 192.06C99.1921 192.06 99.3982 192.225 99.5218 192.431ZM101.583 192.431C101.748 192.637 101.459 192.72 101.006 192.596C100.058 192.349 99.934 192.06 100.758 192.06C101.088 192.06 101.459 192.225 101.583 192.431ZM93.3803 193.256C93.5039 193.462 93.4627 193.75 93.2566 193.874C93.0505 193.998 92.8856 193.833 92.8856 193.503C92.8856 192.802 93.0093 192.72 93.3803 193.256ZM111.228 194.74C110.857 195.111 109.991 194.163 110.28 193.709C110.527 193.338 110.692 193.379 110.981 193.874C111.228 194.286 111.31 194.657 111.228 194.74ZM117.493 193.709C117.493 193.915 117.205 193.998 116.875 193.874C116.545 193.709 116.257 193.544 116.257 193.462C116.257 193.379 116.545 193.297 116.875 193.297C117.205 193.297 117.493 193.462 117.493 193.709ZM182 120.237C182 154.554 154.181 182.374 119.863 182.374C85.5459 182.374 57.7261 154.554 57.7261 120.237C57.7261 85.9195 85.5459 58.0998 119.863 58.0998C154.181 58.0998 182 85.9195 182 120.237ZM176.23 164.032C176.106 164.238 175.735 164.444 175.488 164.444C175.199 164.444 175.241 164.279 175.612 164.032C176.395 163.537 176.56 163.537 176.23 164.032Z" fill="#1C1A18"/>
</g>
</svg>
